PathFileType	4	(X/Y/Z)	/Users/itak/Documents/Research/Walk-IL/dataset/trc/00509_00183.trc
DataRate	CameraRate	NumFrames	NumMarkers	Units	OrigDataRate	OrigDataStartFrame	OrigNumFrames
100.000000	100.000000	4	53	mm	100.000000	91	366
Frame#	Time	RPSI			LPSI			L3			STRN			T10			C7			CLAV			RBAK			LBAK			LSHO			LUPA			LAEL			LAOL			LWTS			LWPS			LFRA			LIFD			LHPS			LHTS			RSHO			RUPA			RAEL			RAOL			RWTS			RWPS			RFRA			RIFD			RHTS			RHPS			RBHD			LFHD			RFHD			LBHD			LHIP			RHIP			RASI			LASI			LKNE			LTHI			LANK			LTIP			LTOE			LMT1			LMT5			LHEE			RKNE			RTHI			RANK			RTIP			RTOE			RMT1			RMT5			RHEE			
		X1	Y1	Z1	X2	Y2	Z2	X3	Y3	Z3	X4	Y4	Z4	X5	Y5	Z5	X6	Y6	Z6	X7	Y7	Z7	X8	Y8	Z8	X9	Y9	Z9	X10	Y10	Z10	X11	Y11	Z11	X12	Y12	Z12	X13	Y13	Z13	X14	Y14	Z14	X15	Y15	Z15	X16	Y16	Z16	X17	Y17	Z17	X18	Y18	Z18	X19	Y19	Z19	X20	Y20	Z20	X21	Y21	Z21	X22	Y22	Z22	X23	Y23	Z23	X24	Y24	Z24	X25	Y25	Z25	X26	Y26	Z26	X27	Y27	Z27	X28	Y28	Z28	X29	Y29	Z29	X30	Y30	Z30	X31	Y31	Z31	X32	Y32	Z32	X33	Y33	Z33	X34	Y34	Z34	X35	Y35	Z35	X36	Y36	Z36	X37	Y37	Z37	X38	Y38	Z38	X39	Y39	Z39	X40	Y40	Z40	X41	Y41	Z41	X42	Y42	Z42	X43	Y43	Z43	X44	Y44	Z44	X45	Y45	Z45	X46	Y46	Z46	X47	Y47	Z47	X48	Y48	Z48	X49	Y49	Z49	X50	Y50	Z50	X51	Y51	Z51	X52	Y52	Z52	X53	Y53	Z53	

92	0.91	-1150.69580078125	971.2409057617188	-515.8556518554688	-1079.571899414062	971.3488159179688	-616.9611206054688	-1122.392333984375	1033.765014648438	-574.4415893554688	-920.5274658203125	1194.394409179688	-460.847900390625	-1133.49951171875	1141.179443359375	-576.5191650390625	-1085.2998046875	1368.566040039062	-546.6419677734375	-950.1217651367188	1289.987548828125	-477.6005554199219	-1170.45263671875	1248.848022460938	-496.2690734863281	-1068.736450195312	1315.265625	-634.9366455078125	-950.0060424804688	1361.731079101562	-657.2244873046875	-937.93359375	1236.32421875	-719.6166381835938	-924.827392578125	1024.866455078125	-740.7113647460938	-1019.137878417969	1019.172241210938	-708.0292358398438	-859.8519897460938	840.5575561523438	-660.8578491210938	-912.413818359375	798.9046630859375	-727.16943359375	-910.6187133789062	942.289794921875	-732.15380859375	-862.4392700195312	686.3156127929688	-631.5803833007812	-891.3832397460938	745.5328979492188	-707.0020141601562	-843.4523315429688	761.733154296875	-665.2003173828125	-1106.6728515625	1361.943237304688	-390.8196716308594	-1151.424560546875	1295.025634765625	-350.4876098632812	-1170.287353515625	1026.047729492188	-314.096923828125	-1199.658447265625	1010.3154296875	-371.4876098632812	-1056.182861328125	829.8057861328125	-299.5076904296875	-1142.786010742188	803.6275634765625	-288.5542602539062	-1169.15087890625	971.8378295898438	-306.3750305175781	-1049.491577148438	670.2970581054688	-297.3844604492188	-1049.487182617188	736.6860961914062	-270.4787902832031	-1119.858032226562	731.7586669921875	-277.7130432128906	-1096.811767578125	1517.343017578125	-461.5876770019531	-922.3018798828125	1593.771728515625	-524.9169311523438	-988.7158813476562	1589.681518554688	-416.0490112304688	-1026.507080078125	1516.163452148438	-604.4954223632812	-922.1356201171875	888.8589477539062	-666.5913696289062	-1140.204345703125	866.490234375	-357.6343688964844	-1016.270080566406	906.2107543945312	-355.3086242675781	-882.9926147460938	918.8895874023438	-557.2039794921875	-963.5645141601562	469.2287902832031	-638.7651977539062	-928.5250854492188	625.3341674804688	-648.6309814453125	-1084.12939453125	49.34541320800781	-697.138427734375	-999.8453979492188	322.723876953125	-663.2626953125	-948.8687133789062	39.74796676635742	-540.5132446289062	-1031.58251953125	42.2759895324707	-555.88818359375	-985.7538452148438	48.42593002319336	-646.4525146484375	-1157.624145507812	39.24546432495117	-672.5204467773438	-1137.34716796875	478.6651611328125	-391.505615234375	-1126.913940429688	737.0405883789062	-343.6662292480469	-1210.6142578125	50.95580291748047	-465.9924621582031	-1137.676879882812	333.5964965820312	-410.0070495605469	-1019.387939453125	44.64289093017578	-392.2357788085938	-1053.877319335938	47.31865310668945	-459.8965148925781	-1123.149291992188	49.87909317016602	-392.5195007324219	-1229.00244140625	38.25150299072266	-535.3129272460938	
93	0.92	-1149.1328125	971.4124145507812	-515.3804321289062	-1078.287963867188	971.510986328125	-616.6677856445312	-1120.882690429688	1033.955444335938	-574.0098266601562	-918.1681518554688	1193.974975585938	-460.4858093261719	-1131.581787109375	1141.379150390625	-575.780029296875	-1082.838134765625	1368.622924804688	-545.7366943359375	-947.6448364257812	1289.631591796875	-477.0831298828125	-1168.15966796875	1249.045166015625	-495.3222351074219	-1066.476806640625	1315.326049804688	-634.1394653320312	-947.7838134765625	1361.62158203125	-656.625732421875	-936.17236328125	1236.286254882812	-719.2313842773438	-923.504150390625	1024.881591796875	-740.6163940429688	-1017.842712402344	1019.282165527344	-707.7272338867188	-858.9547119140625	840.1957397460938	-661.3251953125	-911.8353271484375	798.7632446289062	-727.494873046875	-909.6029663085938	942.226806640625	-732.26904296875	-862.2337036132812	685.90625	-632.009521484375	-891.0267333984375	745.2846069335938	-707.31982421875	-842.9228515625	761.2485961914062	-665.6468505859375	-1103.815185546875	1361.85986328125	-389.886474609375	-1148.6552734375	1295.024658203125	-349.4886474609375	-1168.28173828125	1026.110229492188	-313.2717590332031	-1197.746948242188	1010.469665527344	-370.6039428710938	-1054.489013671875	829.6658325195312	-298.5289611816406	-1141.165405273438	803.6123657226562	-287.7928466796875	-1167.26611328125	971.879150390625	-305.5852355957031	-1048.016845703125	670.147216796875	-296.6116638183594	-1048.024536132812	736.5045166015625	-269.5456237792969	-1118.375610351562	731.70068359375	-277.000244140625	-1094.35888671875	1517.14111328125	-460.9438781738281	-919.9463500976562	1593.594116210938	-524.5175170898438	-986.2632446289062	1589.603271484375	-415.5995178222656	-1024.162231445312	1515.825073242188	-603.9205322265625	-921.1709594726562	888.670654296875	-666.8362426757812	-1139.06982421875	866.4478759765625	-357.5809631347656	-1014.6689453125	905.7534790039062	-355.2743225097656	-881.8134765625	918.4747314453125	-557.4464721679688	-963.0420532226562	469.1559143066406	-638.9016723632812	-927.9266357421875	625.1146850585938	-648.8907470703125	-1084.123901367188	49.38776779174805	-697.1512451171875	-999.6200561523438	322.5451965332031	-663.3176879882812	-948.788330078125	39.96276092529297	-540.6898193359375	-1031.517578125	42.25011825561523	-555.8452758789062	-985.8599853515625	48.55220794677734	-646.5093994140625	-1157.630615234375	39.2748908996582	-672.5156860351562	-1136.757446289062	478.468994140625	-391.4468688964844	-1125.632568359375	736.8457641601562	-343.527099609375	-1210.685546875	50.930419921875	-466.0665893554688	-1137.344360351562	333.4660339355469	-410.0129699707031	-1019.779724121094	44.86456680297852	-391.7975769042969	-1053.86181640625	47.29473876953125	-459.6867980957031	-1123.461059570312	49.94561386108398	-392.4694213867188	-1229.110473632812	38.14662551879883	-535.3323974609375	
94	0.93	-1147.442749023438	971.6177368164062	-514.859619140625	-1076.92724609375	971.7044067382812	-616.3973388671875	-1119.291015625	1034.143676757812	-573.5350952148438	-915.6834716796875	1193.540283203125	-460.1326599121094	-1129.5908203125	1141.576904296875	-574.9935913085938	-1080.288330078125	1368.6708984375	-544.7689819335938	-945.050537109375	1289.261352539062	-476.5580444335938	-1165.762939453125	1249.229736328125	-494.3119506835938	-1064.106201171875	1315.38134765625	-633.29638671875	-945.4988403320312	1361.51611328125	-656.014404296875	-934.392333984375	1236.251220703125	-718.8406982421875	-922.2531127929688	1024.955444335938	-740.5716552734375	-1016.509704589844	1019.40087890625	-707.4273681640625	-858.0029907226562	839.8381958007812	-661.87255859375	-911.2557983398438	798.6377563476562	-727.8538818359375	-908.5772094726562	942.1677856445312	-732.4277954101562	-861.9881591796875	685.48974609375	-632.5429077148438	-890.6429443359375	745.0617065429688	-707.7033081054688	-842.3856811523438	760.7469482421875	-666.2013549804688	-1100.814086914062	1361.753784179688	-388.9044494628906	-1145.73828125	1295.005493164062	-348.4218139648438	-1166.134521484375	1026.154541015625	-312.4118957519531	-1195.69970703125	1010.617309570312	-369.6965942382812	-1052.6689453125	829.505859375	-297.5213928222656	-1139.417236328125	803.5797729492188	-286.9996948242188	-1165.240112304688	971.9006958007812	-304.7672424316406	-1046.405151367188	669.9713745117188	-295.8262329101562	-1046.441284179688	736.3099975585938	-268.5800170898438	-1116.74658203125	731.625244140625	-276.2892456054688	-1091.79931640625	1516.938110351562	-460.2512512207031	-917.4874267578125	1593.395385742188	-524.1101684570312	-983.6865844726562	1589.519775390625	-415.1332702636719	-1021.737854003906	1515.473999023438	-603.3155517578125	-920.178955078125	888.4866943359375	-667.1334228515625	-1137.649047851562	866.3729248046875	-357.4177856445312	-1012.945434570312	905.2692260742188	-355.24072265625	-880.5645141601562	918.042724609375	-557.7318115234375	-962.4926147460938	469.0747985839844	-639.04150390625	-927.2814331054688	624.8723754882812	-649.16259765625	-1084.109252929688	49.42365264892578	-697.1654052734375	-999.3358764648438	322.3489990234375	-663.3557739257812	-948.698486328125	40.19039535522461	-540.895751953125	-1031.449340820312	42.21875381469727	-555.802490234375	-985.9635009765625	48.66097259521484	-646.5651245117188	-1157.636352539062	39.29789352416992	-672.51806640625	-1136.13916015625	478.285400390625	-391.4262084960938	-1124.271484375	736.6389770507812	-343.3971862792969	-1210.748779296875	50.91665267944336	-466.1575927734375	-1137.000366210938	333.3544616699219	-410.0483093261719	-1020.191589355469	45.1342658996582	-391.3769836425781	-1053.83251953125	47.24784851074219	-459.486328125	-1123.770141601562	50.03565979003906	-392.4361572265625	-1229.203125	38.05508804321289	-535.3681030273438	
95	0.9400000000000001	-1145.626953125	971.854736328125	-514.29345703125	-1075.488037109375	971.9249267578125	-616.1461791992188	-1117.61474609375	1034.330078125	-573.0098876953125	-913.0701904296875	1193.088256835938	-459.7907104492188	-1127.530517578125	1141.770751953125	-574.1630249023438	-1077.645751953125	1368.709594726562	-543.7379150390625	-942.3357543945312	1288.874755859375	-476.0242004394531	-1163.257690429688	1249.399658203125	-493.2395324707031	-1061.634155273438	1315.436279296875	-632.4098510742188	-943.1538696289062	1361.413208007812	-655.38916015625	-932.5908203125	1236.219604492188	-718.4417114257812	-921.066650390625	1025.06494140625	-740.5772705078125	-1015.134582519531	1019.530334472656	-707.1295166015625	-856.9898681640625	839.4820556640625	-662.48583984375	-910.6693115234375	798.53173828125	-728.2495727539062	-907.5310668945312	942.1112060546875	-732.6268920898438	-861.6803588867188	685.0731811523438	-633.1668701171875	-890.2326049804688	744.8638305664062	-708.1450805664062	-841.8380126953125	760.2241821289062	-666.8577880859375	-1097.664672851562	1361.61669921875	-387.8696594238281	-1142.665283203125	1294.962768554688	-347.287353515625	-1163.842651367188	1026.174072265625	-311.5110168457031	-1193.51318359375	1010.750793457031	-368.7545471191406	-1050.712036132812	829.3250732421875	-296.4962463378906	-1137.52783203125	803.5213623046875	-286.1799621582031	-1163.07080078125	971.8960571289062	-303.9090881347656	-1044.6435546875	669.7704467773438	-295.0299072265625	-1044.709594726562	736.0960693359375	-267.6065673828125	-1114.958984375	731.5277709960938	-275.5709533691406	-1089.122680664062	1516.735961914062	-459.5134887695312	-914.9224243164062	1593.176513671875	-523.696044921875	-980.9794311523438	1589.4326171875	-414.6495361328125	-1019.234619140625	1515.108032226562	-602.6776733398438	-919.1173706054688	888.31982421875	-667.462158203125	-1135.9453125	866.2645263671875	-357.1466979980469	-1011.095458984375	904.7583618164062	-355.2077026367188	-879.227783203125	917.5978393554688	-558.046630859375	-961.9171142578125	468.97900390625	-639.1851806640625	-926.5753173828125	624.6155395507812	-649.442138671875	-1084.086669921875	49.45254135131836	-697.183349609375	-998.9718017578125	322.1440124511719	-663.3836669921875	-948.605224609375	40.42496490478516	-541.1209716796875	-1031.383911132812	42.18546295166016	-555.7600708007812	-986.0643920898438	48.75523376464844	-646.6172485351562	-1157.639282226562	39.31035614013672	-672.5301513671875	-1135.490112304688	478.1177368164062	-391.4338989257812	-1122.827270507812	736.4171752929688	-343.2767944335938	-1210.803955078125	50.91250610351562	-466.2585754394531	-1136.63427734375	333.2565002441406	-410.1087341308594	-1020.605895996094	45.44974136352539	-391.0040893554688	-1053.796264648438	47.18259048461914	-459.30712890625	-1124.0634765625	50.15082168579102	-392.4263000488281	-1229.28369140625	37.97289276123047	-535.418701171875	
